<?xml version="1.0" encoding="UTF-8"?>
<svg width="1200pt" height="1200pt" version="1.1" viewBox="0 0 1200 1200" xmlns="http://www.w3.org/2000/svg">
 <path d="m977.39 691.82-0.09375-0.09375-0.09375-0.046875c-23.812-14.953-51.938-23.578-82.031-23.578-42.703 0-81.562 17.484-109.73 45.703-28.172 28.172-45.703 67.031-45.703 109.73v74.016c0 9.6562-1.3125 18.75-4.125 27.609-2.7188 8.7188-6.8906 16.969-12.516 24.938l-12.422 17.672c-4.0781 5.8125-6.3281 12.094-6.75 18.375-0.14062 1.875-0.09375 3.75 0.09375 5.625 0.09375 0.65625 0.1875 1.2656 0.23438 1.9219 0.60938 3.9375 1.9219 7.9688 3.9375 11.859 3.3281 6.4219 7.875 11.391 13.219 14.625s11.859 5.0156 19.125 5.0156h309.1c7.2656 0 13.781-1.7344 19.125-5.0156 5.3438-3.2344 9.8438-8.2031 13.219-14.625 3.3281-6.3281 4.7344-12.938 4.2656-19.312-0.375-6.2812-2.6719-12.609-6.75-18.375l-12.422-17.672c-5.625-7.9688-9.75-16.266-12.516-24.938-2.8125-8.8125-4.125-17.906-4.125-27.609v-74.016c0-42.703-17.484-81.562-45.703-109.73-8.2969-8.2969-17.578-15.703-27.562-21.984zm-771.66 170.68c-15.234 0-27.562-12.328-27.562-27.562 0-15.188 12.328-27.562 27.562-27.562h247.45c15.234 0 27.562 12.328 27.562 27.562s-12.328 27.562-27.562 27.562zm0-127.5c-15.234 0-27.562-12.328-27.562-27.562s12.328-27.562 27.562-27.562h316.6c15.234 0 27.562 12.328 27.562 27.562 0 15.188-12.328 27.562-27.562 27.562zm0-127.5c-15.234 0-27.562-12.328-27.562-27.562 0-15.188 12.328-27.562 27.562-27.562h489.71c15.234 0 27.562 12.328 27.562 27.562 0 15.188-12.328 27.562-27.562 27.562zm0-127.5c-15.234 0-27.562-12.328-27.562-27.562 0-15.188 12.328-27.562 27.562-27.562h666.74c15.188 0 27.562 12.328 27.562 27.562 0 15.188-12.328 27.562-27.562 27.562zm803.39 600.28c-1.6406 28.781-14.109 54.703-33.281 73.922-20.672 20.672-49.172 33.469-80.578 33.469s-59.906-12.797-80.578-33.469c-19.172-19.172-31.594-45.141-33.281-73.922h-40.734c-17.203 0-33.422-4.5938-47.531-13.172s-25.688-20.859-33.656-36.141c-1.2188-2.3438-2.3438-4.7344-3.3281-7.0781h-469.13c-35.344 0-67.5-14.484-90.797-37.734s-37.734-55.406-37.734-90.797v-649.5c0-35.344 14.484-67.5 37.734-90.797 20.203-20.203 47.062-33.75 76.875-36.984v-15.656c0-24.75 10.125-47.25 26.391-63.562 16.266-16.266 38.766-26.391 63.516-26.391s47.25 10.125 63.562 26.391c16.266 16.266 26.391 38.766 26.391 63.562v14.953h372.28v-14.953c0-24.75 10.125-47.25 26.391-63.562l0.09375 0.09375c16.359-16.359 38.812-26.438 63.469-26.438 24.75 0 47.25 10.125 63.562 26.391 16.266 16.266 26.391 38.766 26.391 63.562v15.656c29.859 3.2344 56.719 16.828 76.875 36.984 23.297 23.297 37.734 55.453 37.734 90.797v408.19c8.625 6.3281 16.688 13.312 24.281 20.859 38.109 38.109 61.828 90.75 61.828 148.69v74.016c0 4.0781 0.51562 7.6875 1.5469 11.016 1.0781 3.4219 2.7188 6.7031 5.0156 9.8906l12.422 17.672c9.9844 14.203 15.562 30.188 16.688 46.594 1.0781 16.312-2.3438 32.812-10.312 48.188-7.9688 15.281-19.547 27.562-33.656 36.141s-30.328 13.172-47.531 13.172h-40.734zm-172.4 0c1.5469 13.547 7.7344 25.734 16.969 34.969 10.688 10.688 25.406 17.297 41.625 17.297s30.938-6.6562 41.625-17.297c9.2344-9.2344 15.422-21.422 16.969-34.969zm127.92-455.39v-272.39h-850.97v542.86c0 20.156 8.2969 38.531 21.609 51.844s31.688 21.609 51.844 21.609h464.21c2.5781-11.391 7.5-22.406 14.625-32.578l12.422-17.672c2.25-3.1875 3.9375-6.4688 5.0156-9.8906 1.0312-3.3281 1.5469-6.9375 1.5469-11.016v-74.016c0-57.938 23.672-110.53 61.828-148.69 38.109-38.109 90.75-61.828 148.69-61.828 24.281 0 47.578 4.125 69.328 11.812zm-791.48-451.18c-14.625 2.8594-27.75 10.078-37.922 20.25-13.312 13.312-21.609 31.688-21.609 51.844v51.609h850.97v-51.609c0-20.156-8.2969-38.531-21.609-51.844-10.172-10.172-23.297-17.438-37.922-20.25v10.078c0 24.609-10.078 47.016-26.297 63.328l-0.1875 0.1875c-16.359 16.266-38.812 26.391-63.422 26.391-23.766 0-45.516-9.375-61.688-24.703-0.65625-0.5625-1.2656-1.0781-1.8281-1.6875-16.266-16.266-26.391-38.766-26.391-63.516v-11.391h-372.28v11.391c0 24.75-10.125 47.25-26.391 63.516s-38.766 26.391-63.562 26.391c-24.75 0-47.25-10.125-63.516-26.391-0.60938-0.60938-1.1719-1.1719-1.6875-1.8281-15.281-16.172-24.75-37.922-24.75-61.688v-10.078zm114.47-95.953c-6.3281-6.3281-15-10.266-24.609-10.266-9.5625 0-18.234 3.9375-24.609 10.266-6.3281 6.3281-10.266 15-10.266 24.609v81.422c0 9.0938 3.4688 17.297 9.0938 23.531l1.125 1.0781c6.3281 6.3281 15.047 10.266 24.609 10.266s18.234-3.9375 24.609-10.266c6.3281-6.3281 10.266-15 10.266-24.562v-81.422c0-9.5625-3.9375-18.234-10.266-24.609zm527.53-10.266c-9.6094 0-18.328 3.8906-24.562 10.172l-0.09375 0.09375 0.09375 0.09375c-6.3281 6.3281-10.266 15-10.266 24.609v81.422c0 9.5625 3.9375 18.234 10.266 24.562l1.0781 1.125c6.1406 5.6719 14.391 9.1406 23.531 9.1406 9.6094 0 18.328-3.8906 24.609-10.172l0.09375-0.09375c6.2812-6.2812 10.172-14.953 10.172-24.562v-81.422c0-9.5625-3.9375-18.234-10.266-24.609-6.3281-6.3281-15-10.266-24.609-10.266z"/>
</svg>
