<?xml version="1.0" encoding="UTF-8"?>
<svg width="1200pt" height="1200pt" version="1.1" viewBox="0 0 1200 1200" xmlns="http://www.w3.org/2000/svg">
 <path d="m125.02 575.02c13.828 0 24.984-11.203 24.984-24.984v-180.74c0-12.422 10.078-22.5 22.5-22.5h758.76c12.422 0 22.5 10.078 22.5 22.5v34.781c0 13.828 11.203 24.984 24.984 24.984 13.828 0 24.984-11.203 24.984-24.984v-34.781c0-39.984-32.531-72.469-72.516-72.469l-758.72-0.046874c-39.984 0-72.516 32.531-72.516 72.469v180.74c0 13.828 11.203 24.984 24.984 24.984z" fill="#253351"/>
 <path d="m978.74 771.24c-13.828 0-24.984 11.203-24.984 24.984v34.781c0 12.234-10.078 22.219-22.5 22.219l-758.76 0.046875c-12.422 0-22.5-9.9844-22.5-22.219v-180.74c0-13.828-11.203-24.984-24.984-24.984-13.828 0-24.984 11.203-24.984 24.984v180.74c0 39.844 32.531 72.234 72.516 72.234h758.76c39.984 0 72.516-32.391 72.516-72.234v-34.781c0-13.828-11.203-24.984-24.984-24.984z" fill="#253351"/>
 <path d="m209.68 804.98c9.1875 10.359 24.984 11.25 35.297 2.1094l201.66-178.82 68.531 58.594c20.953 18.141 52.547 18.234 73.5 0.09375l68.578-58.688 201.66 178.82c4.7812 4.2188 10.688 6.2812 16.594 6.2812 21.938 0.75 34.078-29.344 16.594-43.688l-196.5-174.24 192.79-164.9c10.5-9 11.719-24.75 2.7656-35.25-8.9531-10.453-24.75-11.672-35.25-2.7188l-299.86 256.45c-2.2969 1.9688-5.9062 1.9688-8.2969-0.09375 0 0-298.31-255.14-299.72-256.36-24.703-21-57.375 16.5-32.484 37.969l192.79 164.9-196.5 174.24c-10.312 9.1406-11.297 24.938-2.1094 35.297z" fill="#253351"/>
 <path d="m857.63 503.95c0 13.828 11.203 24.984 24.984 24.984h192.37c13.828 0 24.984-11.203 24.984-24.984 0-13.828-11.203-24.984-24.984-24.984h-192.37c-13.828 0-24.984 11.203-24.984 24.984z" fill="#253351"/>
 <path d="m1075 575.06h-192.37c-32.812 0.51562-32.906 49.453 0 50.016h192.37c32.812-0.51562 32.906-49.453 0-50.016z" fill="#253351"/>
 <path d="m1075 671.21h-192.37c-32.812 0.51562-32.906 49.453 0 50.016h192.37c32.812-0.51562 32.906-49.453 0-50.016z" fill="#253351"/>
</svg>
