<?xml version="1.0" encoding="UTF-8"?>
<svg width="1200pt" height="1200pt" version="1.1" viewBox="0 0 1200 1200" xmlns="http://www.w3.org/2000/svg">
 <path d="m933.61 342v-34.688c-0.046875-16.688-13.547-30.188-30.281-30.234h-681.56c-16.688 0.046875-30.188 13.547-30.234 30.234v540.42h742.08v-141.19c-64.969-0.1875-124.97-34.875-157.45-91.172-24.188-41.859-30.75-91.594-18.234-138.28 12.516-46.688 43.031-86.484 84.891-110.67l0.84375-0.42188c27.375-15.703 58.359-23.953 89.953-24zm-8.0156 211.64h112.22v-0.046875c-7.2188 33.469-29.203 61.781-59.859 76.969-30.609 15.234-66.516 15.656-97.453 1.1719zm-67.688 64.031c-33.797-27.094-48.938-71.203-38.953-113.39 9.9844-42.141 43.359-74.766 85.688-83.812v116.39l-46.734 80.859zm94.219-237.94c67.5 5.8125 120.98 59.531 126.47 127.08 0.5625 7.3125-4.9219 13.734-12.234 14.297h-116.02c-7.3125 0-13.266-5.9531-13.266-13.312v-114.94c0-7.3594 5.9531-13.359 13.312-13.359 0.60938 0 1.1719 0.046875 1.7344 0.14062zm67.406 58.969c-15.234-15.281-34.594-25.875-55.734-30.422v86.203h86.203c-4.5-21.141-15.094-40.547-30.375-55.828zm-88.312-33.609v121.92h121.97c7.3594 0 13.312 6 13.312 13.359 0 0.5625-0.046875 1.125-0.09375 1.6875-4.6875 53.859-40.172 100.08-90.938 118.5-50.812 18.469-107.67 5.7188-145.78-32.578-38.109-38.297-50.484-95.25-31.781-145.92 18.703-50.719 65.109-85.922 118.97-90.281 7.3125-0.60938 13.734 4.875 14.297 12.234v1.0312zm-110.81 576.84c-5.3906 0-10.266-3.2344-12.328-8.2031-2.1094-4.9688-0.98438-10.734 2.8594-14.531 3.7969-3.8438 9.5156-4.9688 14.531-2.9062 4.9688 2.0625 8.2031 6.9375 8.2031 12.328 0 3.5156-1.4062 6.9375-3.8906 9.4219s-5.9062 3.8906-9.4219 3.8906zm-39.844 0h-0.046875c-5.3906 0-10.219-3.2344-12.281-8.25-2.0625-4.9688-0.9375-10.688 2.9062-14.484 3.7969-3.8438 9.5156-4.9688 14.531-2.9062 4.9688 2.0625 8.2031 6.9375 8.2031 12.328 0 3.5156-1.4062 6.9375-3.8906 9.4219-2.5312 2.4844-5.9062 3.8906-9.4688 3.8906zm-39.844 0h-0.046875c-5.3906 0-10.266-3.2344-12.328-8.2031-2.0625-5.0156-0.89062-10.734 2.9062-14.531 3.8438-3.8438 9.5625-4.9688 14.531-2.9062s8.25 6.9375 8.2031 12.328c0 3.5156-1.4062 6.9375-3.8906 9.4219s-5.8594 3.8906-9.4219 3.8906zm-39.844 0h-0.046875c-5.3906 0-10.266-3.2344-12.328-8.2031-2.0625-5.0156-0.89062-10.734 2.9062-14.531 3.7969-3.8438 9.5625-4.9688 14.531-2.9062s8.2031 6.9375 8.2031 12.328c0 3.5156-1.4062 6.9375-3.8906 9.4219s-5.9062 3.8906-9.4219 3.8906zm-301.45-54.328h-0.046875c19.547 0 36.375 13.781 40.172 32.953 3.8438 19.172-6.4219 38.344-24.469 45.844s-38.859 1.1719-49.734-15.047c-10.828-16.266-8.7188-37.922 5.1094-51.75 7.6406-7.6875 18.047-12 28.922-12zm10.125 30.844h-0.046875c-4.8281-4.8281-12.375-5.5781-18.047-1.7812s-7.875 11.062-5.2969 17.344c2.625 6.2812 9.3281 9.8906 15.984 8.5781 6.7031-1.3594 11.531-7.2188 11.531-14.016 0-3.7969-1.5-7.4531-4.1719-10.125zm-99.656-30.844h-0.09375c19.547 0 36.375 13.828 40.172 32.953 3.8438 19.172-6.4219 38.344-24.469 45.844s-38.859 1.1719-49.734-15.094c-10.828-16.219-8.7188-37.875 5.1094-51.703 7.6406-7.6875 18.094-12 28.922-12zm10.125 30.844h-0.09375c-4.8281-4.7812-12.375-5.5312-18-1.7344-5.6719 3.7969-7.8281 11.016-5.25 17.297 2.625 6.2812 9.2812 9.8438 15.984 8.5312 6.6562-1.3125 11.438-7.1719 11.438-13.969 0.046875-3.7969-1.5-7.4531-4.1719-10.125zm250.22-40.406-59.953 101.06h393.05c16.688-0.046875 30.234-13.547 30.281-30.281v-70.734zm-90.891 101.06 59.953-101.06h-347.76v70.828c0.046875 16.688 13.547 30.188 30.234 30.234zm553.74-269.29 46.828-27.047-5.7656-9.9844-46.922 27.047 5.7656 9.9844zm60.141-4.0312 44.531 77.062-0.14062-0.046875c0.28125 0.60938 0.65625 1.2188 0.98438 1.7812 6.75 12.609 2.5781 28.266-9.5625 35.859-0.46875 0.23438-0.89062 0.46875-1.3594 0.75-12.844 6.8906-28.875 2.3438-36.234-10.266-0.14062-0.23438-0.28125-0.46875-0.42188-0.70312l-44.719-77.344 46.828-27.047zm-40.781-82.969 13.875 24.141-0.09375-0.046875c11.109-4.3125 23.672 0.1875 29.578 10.5l65.391 113.3c14.812 25.641 6.0469 58.406-19.594 73.219h-0.09375c-25.641 14.719-58.312 5.9062-73.125-19.641-0.14062-0.23438-0.28125-0.46875-0.42188-0.75l-65.016-112.59h0.046875c-5.9531-10.266-3.5625-23.344 5.6719-30.844l-13.875-24.094c-11.203 3.9844-22.781 6.8438-34.547 8.5781v284.34c-0.09375 31.359-25.5 56.719-56.859 56.812h-681.61c-31.359-0.046875-56.766-25.453-56.812-56.812v-39.375h-76.453c-31.359-0.046875-56.766-25.453-56.859-56.812v-681.66c0.09375-31.359 25.5-56.766 56.859-56.812h681.56c31.359 0.046875 56.812 25.453 56.906 56.812v39.328h76.406l-0.046874 0.046875c31.359 0.046875 56.766 25.453 56.859 56.812v36.656c54.844 8.0156 103.08 40.547 131.02 88.406 0.375 0.5625 0.75 1.125 1.0312 1.7344 21 36.844 28.5 79.828 21.188 121.6-7.2656 41.766-28.922 79.688-61.172 107.2zm-9.2344 37.172-12.328-21.328c-1.5 0.9375-3 1.875-4.5469 2.7656l-0.09375-0.09375c-0.75 0.51562-1.5 0.9375-2.2969 1.2656-1.5469 0.89062-3.0938 1.7344-4.6406 2.5312l12.328 21.328 11.484-6.6562zm-68.953-326.11c39.891 10.641 73.922 36.75 94.5 72.516 42.984 74.484 17.484 169.69-56.953 212.68-74.484 42.938-169.64 17.484-212.68-56.953-42.938-74.438-17.438-169.64 57-212.63l0.60938-0.375c35.625-20.391 77.859-25.828 117.47-15.141zm-248.29 225.28c5.5781 4.7812 6.2344 13.172 1.4531 18.75s-13.172 6.2344-18.75 1.4531l-83.906-72-82.688 37.594v0.046875c-5.9531 2.6719-12.938 0.60938-16.547-4.8281l-83.156-111.89-80.344 41.859h0.046875c-5.7656 3-12.844 1.4062-16.734-3.7969l-89.953-107.44c-4.7344-5.625-3.9844-14.016 1.6406-18.75 5.625-4.6875 14.016-3.9844 18.75 1.6875l83.484 99.703 80.859-42.188h-0.046875c5.8125-3 12.938-1.3594 16.828 3.8906l83.953 112.97 80.625-36.609h-0.046875c4.6875-2.1094 10.219-1.3594 14.109 2.0156l90.375 77.531zm-396.56-25.547h53.062c4.3125 0 8.4375 1.6875 11.484 4.7812 3.0469 3.0469 4.7812 7.1719 4.7812 11.484v216c0 9.0469-7.3125 16.359-16.312 16.359h-53.062c-4.3594 0-8.4844-1.7344-11.531-4.8281-3.0938-3.0469-4.8281-7.2188-4.8281-11.531v-216c0-4.3125 1.7344-8.4844 4.8281-11.531 0.51562-0.5625 1.125-1.0312 1.7344-1.5 2.8125-2.1094 6.2812-3.2812 9.7969-3.2812zm42.75 26.625v195.32h-32.484v-195.32zm-133.13-134.58h53.062c4.3125 0.046875 8.4844 1.7812 11.531 4.8281 3.0938 3.0469 4.7812 7.2188 4.7812 11.578v323.81c0 4.3594-1.7344 8.5312-4.7812 11.578-0.5625 0.51563-1.125 1.0312-1.7344 1.5-2.8594 2.1094-6.2812 3.2812-9.7969 3.2812h-53.062c-9-0.046874-16.312-7.3125-16.359-16.359v-323.86c0.046875-9 7.3594-16.312 16.359-16.359zm42.75 26.625 0.046875 303.28h-32.484v-303.24zm180.61 60.797 0.046875 242.48h-32.391v-242.44zm-42.656-26.578h53.062c4.3125 0 8.4844 1.6875 11.531 4.7812 3.0938 3.0469 4.8281 7.1719 4.8281 11.531v263.06c-0.046875 9.0469-7.3125 16.312-16.359 16.359h-53.062 0.046875c-4.3125 0-8.4375-1.7344-11.484-4.7344l-0.09375-0.09375c-3.0469-3.0469-4.7812-7.2188-4.7812-11.531v-263.06c0-3.5156 1.1719-6.9375 3.3281-9.75 0.42188-0.65625 0.9375-1.2188 1.4531-1.7812 3.0938-3.0469 7.2188-4.7812 11.578-4.7812zm133.13 148.26v120.79h-32.438v-120.79zm-42.75-26.672h53.062-0.046875c4.3125 0 8.4375 1.7344 11.484 4.7812l0.09375 0.09375c3.0469 3.0469 4.7812 7.1719 4.7812 11.484v141.42c0 4.3594-1.7344 8.5312-4.7812 11.578-3.0469 3.0469-7.2188 4.7812-11.531 4.8281h-53.062c-3.5156-0.046876-6.9844-1.1719-9.7969-3.3281-0.60938-0.42187-1.2188-0.9375-1.7344-1.4531-3.0938-3.0938-4.8281-7.2656-4.8281-11.578v-141.52c0.046875-4.3125 1.7344-8.4375 4.7812-11.484l0.09375-0.09375v0.046876c3.0469-3.0938 7.1719-4.7812 11.484-4.8281zm133.13-14.438v161.9h-32.484v-161.9zm-42.75-26.672h53.062l-0.046876 0.046876c9.0469 0 16.359 7.3594 16.359 16.406v182.44c-0.046876 3.5625-1.1719 6.9844-3.3281 9.8438-0.42187 0.60937-0.9375 1.1719-1.4531 1.7344-3.0938 3.0469-7.2656 4.7812-11.578 4.7812h-53.062c-9.0469 0-16.359-7.3125-16.406-16.359v-182.48c0-9.0938 7.3594-16.453 16.406-16.453zm133.13 104.2v84.328l-32.531 0.046876v-84.328zm-42.797-26.578h53.062-0.046875c9.0469 0.046876 16.359 7.4062 16.359 16.453v104.81c0 9.0469-7.3125 16.359-16.359 16.359h-53.062 0.046875c-3.5625 0-6.9844-1.1719-9.8438-3.2812-0.60938-0.46875-1.1719-0.98437-1.7344-1.5-3.0469-3.0469-4.7812-7.2188-4.7812-11.578v-104.95c0-4.3125 1.6875-8.4844 4.7812-11.531 3.0469-3.0938 7.2188-4.8281 11.531-4.8281zm-632.58 66.984v-540.52c0.046875-16.688 13.594-30.188 30.281-30.234h681.56c16.688 0.046874 30.188 13.547 30.234 30.234v39.328h-578.53v0.046874c-31.359 0.046876-56.766 25.453-56.812 56.812v444.32zm106.64 26.531h-106.64v17.062h106.64zm0 43.688h-106.64v70.875c0.046875 16.688 13.594 30.188 30.281 30.234h76.406v-101.06zm26.625 52.547v17.062l742.13-0.046874v-16.969z" fill="#253351" fill-rule="evenodd"/>
</svg>
