<?xml version="1.0" encoding="UTF-8"?>
<svg width="1200pt" height="1200pt" version="1.1" viewBox="0 0 1200 1200" xmlns="http://www.w3.org/2000/svg">
 <path d="m626.06 1073.2c-163.03 0.09375-314.58-83.812-401.02-222-15.234-24.281-7.9219-56.297 16.359-71.531 24.281-15.188 56.25-7.875 71.484 16.406 68.109 108.56 185.21 173.34 313.22 173.34 203.68 0 369.42-165.71 369.42-369.37 0-203.72-165.79-369.37-369.47-369.37-181.45 0-338.48 135.1-365.29 314.21v-0.046875c-1.5469 10.5-11.344 17.719-21.844 16.172-10.453-1.5938-17.719-11.344-16.125-21.844 14.812-96.422 63.609-184.36 137.53-247.97 73.969-63.609 168.19-98.672 265.74-98.953 224.86 0 407.81 182.95 407.81 407.81 0 224.86-182.95 407.81-407.81 407.81-141.28 0-270.52-71.531-345.71-191.34v-0.046874c-2.4375-3.9375-6.7969-6.3281-11.438-6.2812-2.5312 0-4.9688 0.70312-7.125 2.0625-3 1.875-5.1562 4.9219-5.9531 8.3906-0.79687 3.4688-0.1875 7.125 1.6875 10.172 79.453 126.98 218.72 204.1 368.53 204 111.8 0 219.32-43.125 300.19-120.37 80.867-77.246 128.86-182.68 134.02-294.37 5.1562-111.7-32.953-221.11-106.41-305.44-73.406-84.328-176.53-137.16-287.86-147.42-111.38-10.266-222.37 22.734-310.03 92.203-87.656 69.422-145.13 170.02-160.55 280.78-0.09375 0.60938-0.14062 1.2188-0.14062 1.8281 0 10.594-8.5781 19.172-19.219 19.172-10.594 0-19.172-8.5781-19.172-19.172 0-2.4375 0.14062-4.8281 0.51562-7.2188 16.734-120.61 79.312-230.21 174.74-305.86 95.391-75.656 216.32-111.66 337.6-100.45 121.31 11.156 233.58 68.672 313.55 160.55s121.45 211.03 115.83 332.68c-5.625 121.69-57.938 236.48-146.06 320.58-88.078 84.094-205.22 130.97-327 130.92z" fill="#253351"/>
 <path d="m204.79 684.61c-6.3281 0-12.234-3.1406-15.844-8.3438l-84.797-123.47c-4.0312-5.8594-4.4531-13.5-1.1719-19.781 3.3281-6.3281 9.8906-10.266 17.016-10.266h169.6c7.125 0 13.641 3.9375 16.969 10.266 3.3281 6.2812 2.8594 13.922-1.1719 19.781l-84.75 123.47c-3.6094 5.2031-9.5156 8.3438-15.844 8.3438zm-48.328-123.47 48.328 70.312 48.281-70.312z" fill="#253351"/>
 <path d="m691.45 684.61c-5.1094 0-9.9844-2.0156-13.594-5.625l-65.391-65.391c-3.6094-3.6094-5.625-8.4844-5.625-13.594v-127.4c0-10.594 8.625-19.219 19.219-19.219s19.172 8.625 19.172 19.219v119.44l59.766 59.766h0.046875c5.4844 5.5312 7.125 13.781 4.125 20.953-2.9531 7.1719-9.9375 11.812-17.719 11.859z" fill="#253351"/>
 <path d="m628.03 853.92c-140.02 0-253.92-113.91-253.92-253.92 0.046875-140.02 113.95-253.92 253.92-253.92 140.02 0 253.97 113.91 253.97 253.92 0 140.01-114 253.92-253.97 253.92zm0-469.4c-118.78 0-215.53 96.656-215.53 215.53 0 118.83 96.656 215.53 215.53 215.53 118.83-0.046875 215.58-96.797 215.58-215.58s-96.75-215.53-215.58-215.53z" fill="#253351"/>
</svg>
