<?xml version="1.0" encoding="UTF-8"?>
<svg width="1200pt" height="1200pt" version="1.1" viewBox="0 0 1200 1200" xmlns="http://www.w3.org/2000/svg">
 <path d="m985.56 852.96v-411.72c38.156-6.2969 70.266-32.039 84.711-67.91 14.441-35.875 9.1328-76.684-14.016-107.66-23.148-30.98-60.773-47.645-99.273-43.965-38.496 3.6836-72.285 27.176-89.141 61.98l-361.44-83.16c-9.5117-49.887-37.293-94.434-77.91-124.93-40.613-30.492-91.141-44.738-141.7-39.949-50.562 4.7852-97.52 28.262-131.69 65.832-34.172 37.57-53.098 86.539-53.082 137.33 0.015625 50.785 18.977 99.742 53.176 137.29 34.195 37.551 81.168 60.992 131.73 65.746l-34.32 367.44c-38.723 3.9258-74.832 21.336-102.02 49.188s-43.719 64.371-46.707 103.18c-2.9922 38.805 7.75 77.426 30.352 109.11 22.598 31.688 55.613 54.422 93.277 64.234 37.664 9.8125 77.578 6.0742 112.76-10.559 35.188-16.633 63.41-45.102 79.734-80.434h363.24c13.867 54.664 55.633 97.91 109.78 113.66 54.152 15.758 112.6 1.6719 153.63-37.02 41.027-38.695 58.512-96.215 45.953-151.2-12.559-54.98-53.281-99.207-107.04-116.25zm-18.238-595.32c19.73 0 38.656 7.8398 52.609 21.789 13.953 13.953 21.789 32.879 21.789 52.609 0 19.734-7.8359 38.656-21.789 52.609-13.953 13.953-32.879 21.793-52.609 21.793-19.73 0-38.656-7.8398-52.609-21.793-13.953-13.953-21.789-32.875-21.789-52.609 0.03125-19.723 7.8789-38.625 21.824-52.574 13.945-13.945 32.852-21.793 52.574-21.824zm-88.32 141c17.062 22.688 42.199 37.941 70.199 42.598v404.76h-12c-24.594 0.050781-48.84 5.8438-70.801 16.922l-137.88-154.92c16.766-20.363 25.93-45.922 25.93-72.301 0-26.375-9.1641-51.934-25.93-72.301zm-368.88-159.84 347.28 79.801h-0.003906c-0.51953 4.4609-0.80078 8.9453-0.83984 13.438-0.019532 10.863 1.5977 21.664 4.8008 32.039l-160.08 175.92c-18.223-11.699-39.426-17.906-61.082-17.879-14.906 0.011718-29.664 2.9453-43.438 8.6406l-133.08-162c29.996-36.215 46.457-81.738 46.559-128.76 0 0-0.11719-0.96094-0.11719-1.1992zm40.922 468-162.72 152.16c-26.465-27.289-61.5-44.66-99.242-49.199l34.922-367.68c42.242-3.6211 82.285-20.41 114.48-48l127.08 155.64c-22.316 19.215-36.305 46.344-39.012 75.668s6.0742 58.555 24.492 81.535zm89.156-148.8c20.656-0.03125 40.477 8.1445 55.105 22.727 14.629 14.582 22.863 34.379 22.895 55.035 0.03125 20.652-8.1406 40.477-22.727 55.102-14.582 14.629-34.379 22.863-55.031 22.898-20.656 0.03125-40.477-8.1445-55.105-22.727-14.629-14.582-22.863-34.379-22.895-55.035 0-20.645 8.1836-40.449 22.758-55.07 14.578-14.621 34.355-22.867 55-22.93zm-500.52-318c-0.11719-33.062 9.5781-65.418 27.859-92.965 18.281-27.551 44.328-49.051 74.84-61.789 30.512-12.734 64.117-16.125 96.559-9.75 32.441 6.3789 62.262 22.238 85.684 45.578 23.422 23.336 39.391 53.098 45.883 85.516 6.4961 32.418 3.2227 66.035-9.4023 96.594s-34.035 56.68-61.516 75.062c-27.484 18.383-59.805 28.195-92.867 28.195-44.176-0.0625-86.539-17.602-117.83-48.785-31.297-31.18-48.984-73.477-49.207-117.66zm129.6 864c-34.375 0-67.336-13.652-91.641-37.957-24.305-24.309-37.961-57.27-37.961-91.645 0-34.371 13.656-67.336 37.961-91.641 24.305-24.305 57.266-37.957 91.641-37.957 34.371 0 67.336 13.652 91.641 37.957 24.305 24.305 37.957 57.27 37.957 91.641-0.03125 34.363-13.695 67.309-37.992 91.609-24.297 24.297-57.246 37.961-91.605 37.992zm509.04-96h-346.32c8.3711-41.262 0.73438-84.16-21.359-120l168-156c18.277 11.734 39.539 17.969 61.258 17.969 21.723 0 42.984-6.2344 61.262-17.969l134.52 150.36c-36.461 30.184-57.539 75.07-57.48 122.4 0 0.83984 0.12109 1.6797 0.12109 3.2383zm159.12 120c-32.57 0-63.809-12.93-86.848-35.949-23.043-23.02-36-54.242-36.031-86.812-0.035156-32.566 12.867-63.816 35.863-86.879 22.996-23.066 54.207-36.055 86.773-36.121 32.57-0.0625 63.832 12.809 86.918 35.781 23.086 22.973 36.105 54.172 36.203 86.742 0.0625 32.641-12.852 63.969-35.898 87.086-23.047 23.113-54.34 36.121-86.98 36.152z" fill="#253351"/>
</svg>
