<?xml version="1.0" encoding="UTF-8"?>
<svg width="1200pt" height="1200pt" version="1.1" viewBox="0 0 1200 1200" xmlns="http://www.w3.org/2000/svg">
 <path d="m205.87 360.74c0-6.7031 5.4375-12.141 12.141-12.141h411.66c6.7031 0 12.141 5.4375 12.141 12.141 0 6.7031-5.4375 12.141-12.141 12.141h-411.66c-6.7031 0-12.141-5.4375-12.141-12.141zm827.21 443.39c12.938 22.5 5.25 51.234-17.203 64.266l-7.2188 4.1719c-7.125 4.125-15.188 6.2812-23.391 6.2812-4.1719 0-8.2969-0.5625-12.281-1.6406-10.406-2.7656-19.547-9-25.828-17.672l-91.594 1.3125v167.39c0 6.7031-5.4375 12.141-12.141 12.141h-108c4.6875 15.516-1.875 32.203-15.891 40.359l-42.609 24.609v-0.046875c-5.25 3.0938-11.25 4.6875-17.344 4.6875-3.0938 0-6.1406-0.42188-9.0938-1.2188-8.9531-2.3438-16.594-8.2031-21.188-16.219l-30.141-52.172h-485.44c-6.75 0-12.188-5.4375-12.188-12.141v-926.11c0-6.7031 5.4375-12.141 12.188-12.141h579.28c0.42188 0 0.79688 0 1.2188 0.046875 0.28125 0.046875 0.60938 0.09375 0.89062 0.14062l0.28125 0.046875c0.375 0.09375 0.70312 0.14062 1.0312 0.28125l0.09375 0.046875c0.32812 0.09375 0.70312 0.23438 1.0312 0.375l0.09375 0.046875c0.32812 0.14062 0.60938 0.28125 0.9375 0.42188l0.14062 0.09375c0.28125 0.14062 0.51562 0.32812 0.79688 0.46875l0.23438 0.14062c0.23438 0.14062 0.46875 0.32812 0.70312 0.51562l0.23438 0.1875c0.28125 0.23438 0.51562 0.42188 0.75 0.65625l150.71 150.71c0.23438 0.23438 0.46875 0.46875 0.65625 0.75l0.1875 0.23438c0.1875 0.23438 0.375 0.46875 0.51562 0.70312l0.14062 0.23438c0.1875 0.28125 0.32812 0.51562 0.46875 0.79688l0.09375 0.14062c0.14062 0.28125 0.28125 0.60938 0.42188 0.9375l0.046875 0.09375c0.14062 0.32812 0.28125 0.65625 0.375 1.0312l0.046875 0.09375c0.09375 0.32812 0.1875 0.70312 0.28125 1.0312l0.046875 0.28125c0.046875 0.28125 0.09375 0.60938 0.14062 0.89062 0.046875 0.42188 0.046875 0.79688 0.046875 1.2188l-0.046875 244.03zm-327.94-563.72h108.94l-108.94-108.94zm-120 775.69-30.656-53.109-18.094 10.453h-0.046875c-36.422 21-82.969 8.4844-104.02-27.891l-34.828-60.281h0.046875c-20.906-36.469-8.4844-82.922 27.844-104.02l191.9-110.81 112.12-188.02v0.046875c-9.7031-21.984-1.3125-47.766 19.5-59.812l7.2188-4.1719c22.5-12.938 51.234-5.25 64.266 17.203l10.875 18.844v-189.84h-138.28c-6.7031 0-12.141-5.4375-12.141-12.141v-138.28h-555v901.82zm347.76-180.66-189.74-328.64-102.98 172.69 91.688 158.81 111.56-1.5938zm-224.58 10.641-86.672-150.1-184.13 106.27c-24.703 14.391-33.188 46.031-18.984 70.875l34.828 60.281c14.344 24.75 46.031 33.281 70.828 18.984zm2.9062 199.13-74.812-129.61-60.938 35.156 74.812 129.61 0.046875 0.046875c2.9062 5.0156 9.375 6.75 14.438 3.8906l42.609-24.609c5.0156-2.9531 6.75-9.375 3.8438-14.438zm120.05-184.08-103.03 1.4531-70.781 40.922 65.016 112.59h108.8zm180.79-44.906-212.72-368.39v0.046874c-3-5.25-8.0156-9.0469-13.828-10.594-1.9688-0.51562-3.9844-0.79687-6-0.79687-3.9375 0-7.8281 1.0312-11.25 3.0469l-7.2188 4.1719c-10.875 6.2812-14.625 20.203-8.3438 31.078l212.72 368.39c6.2812 10.828 20.156 14.578 31.078 8.3438l7.2188-4.1719c10.828-6.3281 14.531-20.203 8.3438-31.078zm-123.42-313.64c2.9531 1.3125 6.2812 1.4062 9.2812 0.23438 3.0469-1.125 5.4375-3.4219 6.75-6.375l25.641-57.516h0.046876c2.7188-6.0938-0.046876-13.266-6.1406-16.031-6.1406-2.7188-13.312 0.046875-16.031 6.1406l-25.688 57.516c-2.7188 6.0938 0.046876 13.312 6.1406 16.031zm29.156 59.766h0.046874c5.0156 4.4531 12.703 3.9375 17.109-1.0781l39.656-45h0.046874c2.1094-2.4375 3.2344-5.5781 3-8.8125-0.1875-3.2344-1.6406-6.2344-4.0781-8.3438-2.3906-2.1562-5.5781-3.2344-8.8125-3-3.2344 0.1875-6.2344 1.6875-8.3438 4.0781l-39.656 45c-4.4531 5.0625-3.9844 12.703 1.0781 17.156zm26.859 49.828h0.046876c1.5938 2.7656 4.2656 4.8281 7.3594 5.625 3.1406 0.84375 6.4219 0.42188 9.2344-1.2188l50.953-29.391c5.8125-3.375 7.8281-10.781 4.4531-16.594-3.3281-5.8125-10.781-7.8281-16.594-4.4531l-50.953 29.438c-5.8125 3.3281-7.8281 10.781-4.4531 16.594zm142.82 99.047-62.625-6.5156 0.046875-0.046875c-3.1875-0.32812-6.4219 0.60938-8.9062 2.625-2.5312 2.0625-4.125 4.9688-4.4531 8.2031-0.32812 3.1875 0.60938 6.4219 2.6719 8.9062 2.0156 2.5312 4.9688 4.0781 8.1562 4.4062l62.625 6.5156 0.046875 0.046875c0.42188 0.046875 0.84375 0.046875 1.2656 0.046875 6.4688 0 11.766-5.0625 12.094-11.531 0.32812-6.4219-4.4531-12-10.875-12.703zm-113.16-50.859 0.09375-0.046875c1.125 5.6719 6.0938 9.75 11.859 9.75 0.84375 0 1.6406-0.046875 2.4375-0.23438l58.828-11.859h-0.046875c6.6094-1.3125 10.828-7.7344 9.5156-14.297s-7.7344-10.828-14.297-9.5156l-58.828 11.859c-6.5625 1.3594-10.828 7.7344-9.4688 14.297zm-756.37-209.11 411.71-0.046875c6.7031 0 12.094-5.4375 12.094-12.141s-5.3906-12.141-12.094-12.141h-411.66c-6.7031 0-12.094 5.4375-12.094 12.141s5.3906 12.141 12.094 12.141zm311.86 54.047-311.81-0.046875c-6.7031 0-12.141 5.4375-12.141 12.141s5.4375 12.141 12.141 12.141h311.9c6.7031 0 12.141-5.4375 12.141-12.141s-5.4375-12.141-12.141-12.141zm0 78.328h-311.86l0.046874-0.09375c-6.7031 0-12.141 5.4375-12.141 12.141s5.4375 12.141 12.141 12.141h311.9c3.1875 0.046875 6.3281-1.2656 8.5781-3.5156 2.2969-2.2969 3.5625-5.3906 3.5625-8.625s-1.2656-6.3281-3.5625-8.5781c-2.25-2.2969-5.3906-3.5625-8.5781-3.5625zm-176.86 78.234h-134.95c-3.2344 0-6.3281 1.2656-8.625 3.5625-2.25 2.25-3.5625 5.3438-3.5625 8.5781s1.3125 6.3281 3.5625 8.5781c2.2969 2.2969 5.3906 3.5625 8.625 3.5625h134.95c3.2344 0 6.3281-1.2656 8.625-3.5625 2.25-2.25 3.5625-5.3438 3.5625-8.5781s-1.3125-6.3281-3.5625-8.5781c-2.2969-2.2969-5.3906-3.5625-8.625-3.5625zm0 78.328h-134.95c-6.7031 0-12.141 5.4375-12.141 12.141s5.4375 12.141 12.141 12.141h134.95c6.7031 0 12.141-5.4375 12.141-12.141s-5.4375-12.141-12.141-12.141zm-147.1-457.74v-78.328c0-6.7031 5.4375-12.141 12.141-12.141h78.328c6.7031 0 12.141 5.4375 12.141 12.141v78.328c0 6.7031-5.4375 12.141-12.141 12.141h-78.328c-6.7031 0-12.141-5.4375-12.141-12.141zm24.281-12.141h54.047v-54.047h-54.047zm126.56-54.047h272.95c6.7031 0 12.141-5.4375 12.141-12.141 0-6.7031-5.4375-12.141-12.141-12.141h-272.95c-3.2344 0-6.3281 1.2656-8.5781 3.5156-2.2969 2.2969-3.6094 5.3906-3.6094 8.625 0 3.2344 1.3125 6.3281 3.6094 8.5781 2.25 2.2969 5.3438 3.5625 8.5781 3.5625zm0 78.328h272.95c6.7031-0.046876 12.094-5.4844 12.094-12.141 0-6.7031-5.3906-12.141-12.094-12.188h-272.95v0.046876c-3.2344-0.046876-6.3281 1.2656-8.5781 3.5156-2.2969 2.2969-3.6094 5.3906-3.6094 8.625 0 3.1875 1.3125 6.2812 3.6094 8.5781 2.25 2.2969 5.3438 3.5625 8.5781 3.5625z" fill="#253351"/>
</svg>
