<?xml version="1.0" encoding="UTF-8"?>
<svg id="Layer_1" xmlns="http://www.w3.org/2000/svg" version="1.1" viewBox="0 0 720 720">
  <!-- Generator: Adobe Illustrator 29.8.1, SVG Export Plug-In . SVG Version: 2.1.1 Build 2)  -->
  <defs>
    <style>
      .st0 {
        fill: #fff;
      }
    </style>
  </defs>
  <path class="st0" d="M720,0v720H0V0h720ZM196,44H44v152h152V44ZM371,65c-28.2,0-56.4,0-84.6,0l-3.4,1.6v20.5c-14.3,0-28.7,0-43,0,0-5.5.9-14.7,0-19.5s-.5-1.9-1.5-2.5h-20.5v22c7.3,0,14.7,0,22,0,.2,14.6-.1,29.4,0,44h22v20.5l-1.5,1.5h-20.5c0,7,0,14,0,21,5.4,0,14.7-.9,19.5,0s1.9.5,2.5,1.5v20.5h-22c0-7.3,0-14.7,0-22-7.3,0-14.7,0-22,0,0,22,0,44,0,66,7.3,0,14.7,0,22,0,0-7.3,0-14.7,0-22h22c0,7.3,0,14.7,0,22,14.3,0,28.7,0,43,0v43h-22v-21h-21c0-7.3,0-14.7,0-22-7.3,0-14.7,0-22,0,0,14.3,0,28.7,0,43-7.3,0-14.7,0-22,0,0,7.3,0,14.7,0,22h-44v-20.5c.9-1.4,2-1.4,3.4-1.6,11.6-1.4,28.3.1,40.6,0,0-14.3,0-28.7,0-43-7.3,0-14.7,0-22,0,0-7.3,0-14.7,0-22h-22c0,7.3,0,14.7,0,22-21.7,0-43.4,0-65,0,0,7.3,0,14.7,0,22h-22v43c-7.3,0-14.7,0-22,0,0-14.3,0-28.7,0-43h-21v43c7,0,14,0,21,0,0,7.3,0,14.7,0,22,7.3,0,14.7,0,22,0v22h-20.5c-1-.6-1.3-1.4-1.5-2.5-.9-4.8,0-14,0-19.5-7,0-14,0-21,0v44c21.7,0,43.3,0,65,0,0,21.6,0,43.4,0,65-7.3,0-14.7,0-22,0v22h-20.5l-1.5-1.5v-20.5c7.3,0,14.7,0,22,0,0-7.3,0-14.7,0-22h-22v-22h-21v88h43v21h66c0-14.3,0-28.7,0-43,14.3,0,28.7,0,43,0,0,7.3,0,14.7,0,22-7.3,0-14.7,0-22,0v21h22c0-7,0-14,0-21,7,0,14.1.4,21.1-.4,1.7-1.2.9-18.1.9-21.6,7.3,0,14.7,0,22,0,0-7.3,0-14.7,0-22,7.3,0,14.7,0,22,0,0,7.3,0,14.7,0,22h21v-22c-7,0-14,0-21,0,0-7.3,0-14.7,0-22,7,0,14,0,21,0v-65c14.7,0,29.3,0,44,0,0,5.4.9,14.7,0,19.5s-.5,1.9-1.5,2.5h-20.5v21h44c0-14.3,0-28.7,0-43,5.5,0,14.7.9,19.5,0s1.9-.5,2.5-1.5v-41c-.6-1-1.4-1.3-2.5-1.5-4.8-.9-14,0-19.5,0,0-7.3,0-14.7,0-22h-22v-21h22c0,7,0,14,0,21,7.3,0,14.7,0,22,0-.1-14.3.2-28.7,0-43,7,0,14,0,21,0,0,29,0,58,0,87,7.3,0,14.7,0,22,0,0,7.3,0,14.7,0,22h22v-22c-7.3,0-14.7,0-22,0-.1-29,0-58,0-87-7.3,0-14.7,0-22,0,0-14.7,0-29.4,0-44,7.3,0,14.7,0,22,0v-43h-22c0,14.3,0,28.7,0,43-7,0-14,0-21,0v-20.5c-.6-1-1.4-1.3-2.5-1.5-4.8-.9-14.1,0-19.5,0,0-7,0-14,0-21,5.5,0,14.7.9,19.5,0s1.9-.5,2.5-1.5v-20.5c21.6,0,43.4,0,65,0,.2,43.6-.1,87.4,0,131h65c0,14.3,0,28.7,0,43-7,0-14,0-21,0v-20.5l-1.5-1.5h-42.5v22h22c0,22,.1,44,0,66-2.1,0-22-1.1-22,0v21h22c0-7,0-14,0-21h22v21h21c0,7.3,0,14.7,0,22-7,0-14,0-21,0,0,7.3,0,14.7,0,22-7.3,0-14.7,0-22,0v22h-22c0-14.7,0-29.4,0-44-7.3,0-14.7,0-22,0,0-14.3,0-28.7,0-43h-43v21h21c0,7.3,0,14.7,0,22-21.6,0-43.4,0-65,0v22h-22c0,14.7,0,29.3,0,44-7.3,0-14.7-.4-21.9,0-.2,7,0,14,0,20.9-7,0-14,0-21,0v-21h-22v21h-22v22h22v66h20.5l1.5-1.5v-20.5h43v-22h44c0,7.3,0,14.7,0,22-7.3,0-14.7,0-22,0v20.5l-1.5,1.5h-42.5v21h22v44c7.3,0,14.7,0,22,0,0,7.3,0,14.7,0,22h22v-22c-7.3,0-14.7,0-22,0,0-14.6,0-29.3,0-44h22c0-14.3,0-28.7,0-43,7.3,0,14.7,0,22,0,0,21.7,0,43.3,0,65h21v22c7.3,0,14.7,0,22,0,0,7.3,0,14.7,0,22h109v-22h-22v-22h22v-43h22v21h22v-21c7.3,0,14.7,0,22,0,0-7.3,0-14.7,0-22h21v22c-7,0-14,0-21,0,0,7,0,14,0,21h43c0,7.3,0,14.7,0,22-14.3,0-28.7,0-43,0,.8,3.3-1.4,21.6.7,22.1,14.1,0,28.2-.1,42.3,0,0,7.3,0,14.7,0,22h22v-22c-7.3,0-14.7,0-22,0,0-7.3,0-14.7,0-22,14.7,0,29.3,0,44,0v-20.5l-1.5-1.5h-20.5v-21h20.5l1.5-1.5v-20.5h-44v-22h44v-42.5l-1.5-1.5h-42.5v-65c-7.3,0-14.7,0-22,0,0,7.3,0,14.7,0,22h-21v-22c7,0,14,0,21,0,0-14.6,0-29.3,0-44h-43c0-7,0-14,0-21,21.6,0,43.4,0,65,0,0,7,0,14,0,21h22v-21c-7.3,0-14.7,0-22,0,0-14.6,0-29.4,0-44,7.3,0,14.7,0,22,0v22h22v-22c-7.3,0-14.7,0-22,0,0-2.1-1.1-22,0-22h22v-20.5c-.9-1.4-2-1.4-3.4-1.6-11.6-1.4-28.3.1-40.6,0,0-7,0-14,0-21h-22v21c7.3,0,14.7,0,22,0,0,14.6,0,29.4,0,44-14.3,0-28.7,0-43,0,0-5.4.9-14.8,0-19.5s-.5-1.9-1.5-2.5h-20.5v-43h20.5l1.5-1.5v-20.5h-44v-22h-44v22h-43v-66c7.3,0,14.7,0,22,0,0,7.3,0,14.7,0,22h21v-22c-7,0-14,0-21,0,0-7,0-14,0-21h21v-44c-7,0-14,0-21,0,0-3.4.8-20.4-.9-21.6-7-.9-14.1-.4-21.1-.4v-22h43v-21h-87v21c-7.3,0-14.7,0-22,0,0-7,0-14,0-21h-21c0,7,0,14,0,21ZM676,44h-153v152h153V44ZM87,218h-43v22h43v-22ZM654,218h-22v22h22v-22ZM676,414h-22v22h22v-22ZM676,458h-22v22h20.5l1.5-1.5v-20.5ZM196,523H44v153h152v-153ZM240,654h20.5l1.5-1.5v-19l-1.5-1.5h-42.5v44h22v-22ZM567,632h-22v44h20.5l1.5-1.5v-42.5Z"/>
  <path class="st0" d="M501,436c0,7.3,0,14.7,0,22h-21v-22c7,0,14,0,21,0Z"/>
  <path class="st0" d="M153,327c29-.1,58,0,87,0v22h22c0,21.6,0,43.4,0,65-7.3,0-14.7,0-22,0,0,7.3,0,14.7,0,22-7.3,0-14.7,0-22,0,0,7.3,0,14.7,0,22-7.3,0-14.7,0-22,0,0-7.3,0-14.7,0-22h-43c0,7.3,0,14.7,0,22-14.7,0-29.4,0-44,0,0-7.3,0-14.7,0-22,7.3,0,14.7,0,22,0v-44h22c0-7,0-14,0-21,14.3,0,28.7,0,43,0v21h-20.5l-1.5,1.5v20.5h44v-65c-21.6,0-43.4,0-65,0,0-7.3,0-14.7,0-22Z"/>
  <path class="st0" d="M501,414c22-.1,44,0,66,0v42.5l-1.5,1.5h-20.5v-22h-44c0-7.3,0-14.7,0-22Z"/>
  <path class="st0" d="M480,610c0-7,0-14,0-21h21v21c-7,0-14,0-21,0,0,12.2,1.4,29.1,0,40.5s0,2.3-1,3c-21.7.7-43.4.5-65.1.4,0-14.7,0-29.4,0-44,7.3,0,14.7,0,22,0,0,7.3,0,14.7,0,22h22c0-7.3,0-14.7,0-22,7.3,0,14.7,0,22,0Z"/>
  <path class="st0" d="M458,589c0,7,0,14,0,21-7.3,0-14.7,0-22,0,0-7,0-14,0-21,7.3,0,14.7,0,22,0Z"/>
  <path class="st0" d="M196,240c0,7.3,0,14.7,0,22h-20.5c-1-.6-1.3-1.4-1.5-2.5-.9-4.8,0-14.1,0-19.5,7.3,0,14.7,0,22,0Z"/>
  <path class="st0" d="M392,65c0,7.3,0,14.7,0,22-7,0-14,0-21,0,0-7.3,0-14.7,0-22,7,0,14,0,21,0Z"/>
  <path class="st0" d="M414,414c0,14.7,0,29.4,0,44,7.3,0,14.7,0,22,0,0,7.3,0,14.7,0,22-29,0-58,0-87,0v-44h22v22h21c0-14.7,0-29.4,0-44,7.3,0,14.7,0,22,0Z"/>
  <path class="st0" d="M305,501c0,7.3,0,14.7,0,22h-22c0-7.3,0-14.7,0-22,7.3,0,14.7,0,22,0Z"/>
  <path class="st0" d="M371,87c0,5.5.9,14.7,0,19.5s-.5,1.9-1.5,2.5h-20.5c0,14.7,0,29.3,0,44-14.3.2-28.7.2-43.1-.4-1.7-1.2-.9-18.1-.9-21.6-5.4,0-14.7.9-19.5,0s-1.9-.5-2.5-1.5v-20.5h22c0,7.3,0,14.7,0,22,7.3,0,14.7,0,22,0v-44c14.7,0,29.3,0,44,0Z"/>
  <path class="st0" d="M109,262h22v43h20.5c1,.6,1.3,1.4,1.5,2.5.9,4.8,0,14,0,19.5-7.3,0-14.7,0-22,0v22c7.3,0,14.7,0,22,0,0,7.3,0,14.7,0,22-14.7,0-29.3,0-44,0,0-36.3-.2-72.7,0-109Z"/>
  <path class="st0" d="M458,87c0,7.3,0,14.7,0,22,7.3,0,14.7,0,22,0,.1,11.9,1.4,29.3,0,40.6s-.1,2.6-1.6,3.4h-20.5v-22c-7.3,0-14.7,0-22,0,0-7.3,0-14.7,0-22h-44c0-7.3,0-14.7,0-22,22,0,44-.2,66,0Z"/>
  <path class="st0" d="M501,305c7.3,0,14.7,0,22,0v-43h22c0,21.6,0,43.4,0,65-7.3,0-14.7,0-22,0v22h22c0-7.3,0-14.7,0-22,14.6,0,29.3,0,44,0,0,5.4.9,14.8,0,19.5s-.5,1.9-1.5,2.5h-20.5c0,7.3,0,14.7,0,22-18.7,0-44.8,2.1-62.6,0s-2.6-.1-3.4-1.6v-20.5h-21v-22h21c0-7.3,0-14.7,0-22Z"/>
  <path class="st0" d="M436,480c14.7,0,29.3,0,44,0v21h-22v44h22v42.5c-.6,1-1.4,1.3-2.5,1.5-4.8.9-14,0-19.5,0,0-7.3,0-14.7,0-22h-22v-22h-22v22c-14.3,0-28.7,0-43,0,0-22,0-44,0-66h43v22h22c0-14.3,0-28.7,0-43Z"/>
  <path class="st0" d="M349,305c0,14.6,0,29.4,0,44-7.3,0-14.7,0-22,0,0-7.3,0-14.7,0-22h-22v-22c14.6.1,29.4-.2,44,0Z"/>
  <path class="st0" d="M305,480c7.3,0,14.7,0,22,0,0,7,0,14,0,21,5.5,0,14.7-.9,19.5,0s1.9.5,2.5,1.5v20.5h-22c0-7.3,0-14.7,0-22-7.3,0-14.7,0-22,0,0-7,0-14,0-21Z"/>
  <path class="st0" d="M305,196h-22v-20.5l1.5-1.5h20.5c0,7.3,0,14.7,0,22,7.3,0,14.7,0,22,0v-22c7.3,0,14.7,0,22,0,0,14.7,0,29.3,0,44h20.5c1,.6,1.3,1.4,1.5,2.5.9,4.8,0,14,0,19.5-14.7,0-29.3,0-44,0v-22h-22c0-7.3,0-14.7,0-22Z"/>
  <path d="M458,610c0,7.3,0,14.7,0,22h-22c0-7.3,0-14.7,0-22,7.3,0,14.7,0,22,0Z"/>
  <path d="M371,65c0-7,0-14,0-21h21c0,7,0,14,0,21-7,0-14,0-21,0Z"/>
  <path d="M392,65c7.3,0,14.7,0,22,0v-21h87v21h-43v22c-22-.2-44,0-66,0,0-7.3,0-14.7,0-22Z"/>
  <path d="M240,87c14.3,0,28.7,0,43,0v-20.5l3.4-1.6c28.2,0,56.4.1,84.6,0,0,7.3,0,14.7,0,22-14.7,0-29.3,0-44,0v44c-7.3,0-14.7,0-22,0,0-7.3,0-14.7,0-22h-22v20.5c.6,1,1.4,1.3,2.5,1.5,4.8.9,14.1,0,19.5,0,0,3.4-.7,20.4.9,21.6,14.3.7,28.7.6,43.1.4,0,7,0,14,0,21-7.3,0-14.7,0-22,0v22c-7.3,0-14.7,0-22,0,0-7.3,0-14.7,0-22h-20.5l-1.5,1.5v20.5h22c0,7.3,0,14.7,0,22h22v22c14.7,0,29.3,0,44,0,.2,14.3-.1,28.7,0,43-7.3,0-14.7,0-22,0,0-7,0-14,0-21h-22v21h22c0,7.3,0,14.7,0,22-14.6-.2-29.4.1-44,0v22h22c0,7.3,0,14.7,0,22-14.7,0-29.3,0-44,0v65c-7,0-14,0-21,0,0-21.6,0-43.4,0-65h-22v-22c-29,0-58-.1-87,0,0-5.5.9-14.7,0-19.5s-.5-1.9-1.5-2.5h-20.5v-43h-22c0-7.3,0-14.7,0-22,21.7,0,43.4,0,65,0,0,5.4-.9,14.7,0,19.5s.5,1.9,1.5,2.5h20.5c0-7.3,0-14.7,0-22,7.3,0,14.7,0,22,0,0,14.3,0,28.7,0,43-12.2,0-29-1.4-40.6,0-1.5.2-2.6.1-3.4,1.6v20.5h44c0-7.3,0-14.7,0-22,7.3,0,14.7,0,22,0,0-14.3,0-28.7,0-43,7.3,0,14.7,0,22,0,0,7.3,0,14.7,0,22h21v21h22v-43c-14.3,0-28.7,0-43,0,0-7.3,0-14.7,0-22h-22c0,7.3,0,14.7,0,22-7.3,0-14.7,0-22,0,0-22,0-44,0-66,7.3,0,14.7,0,22,0,0,7.3,0,14.7,0,22h22v-20.5c-.6-1-1.4-1.3-2.5-1.5-4.8-.9-14.1,0-19.5,0,0-7,0-14,0-21h20.5l1.5-1.5v-20.5h-22c-.1-14.6.2-29.4,0-44-7.3,0-14.7,0-22,0v-22h20.5c1,.6,1.3,1.4,1.5,2.5.9,4.8,0,14,0,19.5ZM283,305h-21v22h21v-22Z"/>
  <path d="M392,196c0-14.3,0-28.7,0-43h22v43c-7.3,0-14.7,0-22,0,0,14.6,0,29.3,0,44,7.3,0,14.7,0,22,0,0,29-.1,58,0,87,7.3,0,14.7,0,22,0v22h-22c0-7.3,0-14.7,0-22-7.3,0-14.7,0-22,0,0-29,0-58,0-87-7,0-14,0-21,0,0-5.5.9-14.7,0-19.5s-.5-1.9-1.5-2.5h-20.5c0-14.7,0-29.3,0-44,5.4,0,14.7-.9,19.5,0s1.9.5,2.5,1.5v20.5c7,0,14,0,21,0Z"/>
  <path d="M392,87c0,7.3,0,14.7,0,22h44c0,7.3,0,14.7,0,22-21.6,0-43.4,0-65,0v20.5c-.6,1-1.4,1.3-2.5,1.5-4.8.9-14,0-19.5,0,0-14.7,0-29.3,0-44h20.5c1-.6,1.3-1.4,1.5-2.5.9-4.8,0-14,0-19.5,7,0,14,0,21,0Z"/>
  <path d="M480,109c-7.3,0-14.7,0-22,0,0-7.3,0-14.7,0-22,7,0,14.1-.4,21.1.4,1.7,1.2.9,18.1.9,21.6Z"/>
  <path d="M480,109c7,0,14,0,21,0v44h-21c0,7,0,14,0,21,7,0,14,0,21,0v22h-21c0-7.3,0-14.7,0-22-7.3,0-14.7,0-22,0v66h43v-22h44v22h44v20.5l-1.5,1.5h-20.5v43h20.5c1,.6,1.3,1.4,1.5,2.5.9,4.7,0,14.1,0,19.5-14.7,0-29.4,0-44,0,0,7.3,0,14.7,0,22h-22v-22c7.3,0,14.7,0,22,0,0-21.6,0-43.4,0-65h-22v43c-7.3,0-14.7,0-22,0,0-14.3,0-28.7,0-43h-65c-.1-43.6.2-87.4,0-131,7.3,0,14.7,0,22,0v22h20.5c1.4-.9,1.4-2,1.6-3.4,1.3-11.3,0-28.6,0-40.6Z"/>
  <path d="M174,240c0-7.3,0-14.7,0-22h22c0,7.3,0,14.7,0,22-7.3,0-14.7,0-22,0Z"/>
  <path d="M65,305c-7,0-14,0-21,0v-43h21c0,14.3,0,28.7,0,43,7.3,0,14.7,0,22,0v-43h22c-.2,36.3,0,72.7,0,109-21.7,0-43.3,0-65,0v-44c7,0,14,0,21,0,0,5.5-.9,14.7,0,19.5s.5,1.9,1.5,2.5h20.5v-22c-7.3,0-14.7,0-22,0,0-7.3,0-14.7,0-22Z"/>
  <path d="M632,283c-7.3,0-14.7,0-22,0v-21h22c0,7,0,14,0,21,12.2,0,29-1.4,40.6,0,1.5.2,2.6.1,3.4,1.6v20.5h-22c-1.1,0,0,19.9,0,22,7.3,0,14.7,0,22,0v22h-22v-22c-7.3,0-14.7,0-22,0,0,14.6,0,29.4,0,44,7.3,0,14.7,0,22,0v21h-22c0-7,0-14,0-21-21.6,0-43.4,0-65,0,0-7.3,0-14.7,0-22h20.5c1-.6,1.3-1.4,1.5-2.5.9-4.7,0-14.1,0-19.5,14.3,0,28.7,0,43,0,0-14.6,0-29.4,0-44Z"/>
  <path d="M458,371c.1-22,0-44,0-66h-22v-22h42.5l1.5,1.5v20.5c7,0,14,0,21,0,0,7.3,0,14.7,0,22h-21v22h21v20.5c.9,1.4,2,1.4,3.4,1.6,17.7,2.1,43.8,0,62.6,0,0,7,0,14,0,21h43c0,14.7,0,29.4,0,44-7,0-14,0-21,0v22h21c0-7.3,0-14.7,0-22,7.3,0,14.7,0,22,0v65h42.5l1.5,1.5v42.5h-44v22h44v20.5l-1.5,1.5h-20.5v21h20.5l1.5,1.5v20.5c-14.7,0-29.3,0-44,0,0,7.3,0,14.7,0,22,7.3,0,14.7,0,22,0v22h-22c0-7.3,0-14.7,0-22-14.1,0-28.2,0-42.3,0-2.1-.5.1-18.7-.7-22.1,14.3,0,28.7,0,43,0,0-7.3,0-14.7,0-22h-43c0-7,0-14,0-21,7,0,14,0,21,0v-22h-21c0,7.3,0,14.7,0,22-7.3,0-14.7,0-22,0v21h-22v-21h-22v43h-22v22h22v22h-109c0-7.3,0-14.7,0-22,21.7,0,43.4.3,65.1-.4,1-.7.9-1.9,1-3,1.4-11.5-.1-28.4,0-40.5,7,0,14,0,21,0v-21h-21c0,7,0,14,0,21-7.3,0-14.7,0-22,0,0-7,0-14,0-21,5.5,0,14.7.9,19.5,0s1.9-.5,2.5-1.5v-42.5h-22v-44h22v-21c-14.7,0-29.3,0-44,0,0-7.3,0-14.7,0-22h22v-22c7.3,0,14.7,0,22,0v22h21c0-7.3,0-14.7,0-22h44v22h20.5l1.5-1.5v-42.5c-22,0-44-.1-66,0,0-7.3,0-14.7,0-22h-21v-21h-22c0,7,0,14,0,21h-22v-21c0-1.1,19.9,0,22,0ZM502.5,501l-1.5,1.5v63l1.5,1.5h63l1.5-1.5v-63l-1.5-1.5h-63ZM610,501h-21v44h21v-44Z"/>
  <path d="M349,349c0-14.6,0-29.4,0-44,5.5,0,14.7-.9,19.5,0s1.9.5,2.5,1.5v41c-.6,1-1.4,1.3-2.5,1.5-4.8.9-14,0-19.5,0Z"/>
  <path d="M153,327c0,7.3,0,14.7,0,22-7.3,0-14.7,0-22,0v-22c7.3,0,14.7,0,22,0Z"/>
  <path d="M153,349c21.6,0,43.4,0,65,0v65h-44v-20.5l1.5-1.5h20.5v-21c-14.3,0-28.7,0-43,0,0-7.3,0-14.7,0-22Z"/>
  <path d="M349,349c0,14.3,0,28.7,0,43h-44v-21h20.5c1-.6,1.3-1.4,1.5-2.5.9-4.8,0-14.1,0-19.5,7.3,0,14.7,0,22,0Z"/>
  <path d="M153,371c0,7,0,14,0,21h-22v44c-7.3,0-14.7,0-22,0,0-21.6,0-43.4,0-65,14.7,0,29.3,0,44,0Z"/>
  <path d="M392,414c0-7.3,0-14.7,0-22h-21v-21h43c0,14.3,0,28.7,0,43-7.3,0-14.7,0-22,0Z"/>
  <path d="M153,458c0,14.3,0,28.7,0,43h-66v-21h-43v-88h21v22h22c0,7.3,0,14.7,0,22-7.3,0-14.7,0-22,0v20.5l1.5,1.5h20.5v-22c7.3,0,14.7,0,22,0,0,7.3,0,14.7,0,22,14.7,0,29.4,0,44,0Z"/>
  <path d="M262,414c0,7.3,0,14.7,0,22,7,0,14,0,21,0v22h-21c0-7.3,0-14.7,0-22-7.3,0-14.7,0-22,0,0-7.3,0-14.7,0-22,7.3,0,14.7,0,22,0Z"/>
  <path d="M392,414c0,14.6,0,29.3,0,44h-21v-22h-22v44c29,0,58,0,87,0,0,14.3,0,28.7,0,43h-22v-22h-43c0,22,0,44,0,66-7.3,0-14.7,0-22,0,0,14.3,0,28.7,0,43h-22c0,14.7,0,29.4,0,44,7.3,0,14.7,0,22,0v22h-22c0-7.3,0-14.7,0-22-7.3,0-14.7,0-22,0v-44h-22v-21h42.5l1.5-1.5v-20.5c7.3,0,14.7,0,22,0,0-7.3,0-14.7,0-22h-44v22h-43v20.5l-1.5,1.5h-20.5v-66h-22v-22h22v-21h22v21c7,0,14,0,21,0,0,7.3,0,14.7,0,22h22c0-7.3,0-14.7,0-22,7.3,0,14.7,0,22,0,0,7.3,0,14.7,0,22h22v-20.5c-.6-1-1.4-1.3-2.5-1.5-4.8-.9-14,0-19.5,0,0-7,0-14,0-21-7.3,0-14.7,0-22,0,0-14.7,0-29.3,0-44h22v-22c21.6,0,43.4,0,65,0Z"/>
  <path d="M414,414c7.3,0,14.7,0,22,0,0,14.7,0,29.4,0,44-7.3,0-14.7,0-22,0,0-14.7,0-29.4,0-44Z"/>
  <path d="M501,414c0,7.3,0,14.7,0,22-7,0-14,0-21,0,0-7.3,0-14.7,0-22,7,0,14,0,21,0Z"/>
  <path d="M153,458c0-7.3,0-14.7,0-22h43c0,7.3,0,14.7,0,22-14.3,0-28.7,0-43,0Z"/>
  <path d="M240,436c0,7.3,0,14.7,0,22-7.3,0-14.7,0-22,0,0-7.3,0-14.7,0-22,7.3,0,14.7,0,22,0Z"/>
  <path d="M218,458c0,3.4.7,20.4-.9,21.6-7,.9-14.1.4-21.1.4,0,7,0,14,0,21h-22v-21c7.3,0,14.7,0,22,0,0-7.3,0-14.7,0-22,7.3,0,14.7,0,22,0Z"/>
  <path d="M305,480c0,7,0,14,0,21-7.3,0-14.7,0-22,0,0-7,0-14,0-20.9,7.2-.4,14.6-.1,21.9,0Z"/>
  <path d="M371,567c14.3,0,28.7,0,43,0v-22h22v22h22c0,7.3,0,14.7,0,22-7.3,0-14.7,0-22,0,0,7,0,14,0,21-7.3,0-14.7,0-22,0,0,14.7,0,29.4,0,44-7.3,0-14.7,0-22,0v-22h-21c0-21.7,0-43.3,0-65Z"/>
  <path d="M676,44v152h-153V44h153ZM654,174v-107.5l-1.5-1.5h-107.5v109h109Z"/>
  <path d="M196,523v153H44v-153h152ZM174,545h-109v107.5l1.5,1.5h107.5v-109Z"/>
  <path d="M196,44v152H44V44h152ZM174,65h-107.5l-1.5,1.5v107.5h109v-109Z"/>
  <polygon points="240 654 240 676 218 676 218 632 260.5 632 262 633.5 262 652.5 260.5 654 240 654"/>
  <polygon points="567 632 567 674.5 565.5 676 545 676 545 632 567 632"/>
  <rect x="44" y="218" width="43" height="22"/>
  <rect x="632" y="218" width="22" height="22"/>
  <rect x="654" y="414" width="22" height="22"/>
  <polygon points="676 458 676 478.5 674.5 480 654 480 654 458 676 458"/>
  <path class="st0" d="M502.5,501h63l1.5,1.5v63l-1.5,1.5h-63l-1.5-1.5v-63l1.5-1.5ZM545,523h-22v22h22v-22Z"/>
  <rect class="st0" x="589" y="501" width="21" height="44"/>
  <rect class="st0" x="262" y="305" width="21" height="22"/>
  <path class="st0" d="M654,174h-109v-109h107.5l1.5,1.5v107.5ZM632,87h-65v66h65v-66Z"/>
  <path class="st0" d="M174,545v109h-107.5l-1.5-1.5v-107.5h109ZM153,567h-66v65h66v-65Z"/>
  <path class="st0" d="M174,65v109h-109v-107.5l1.5-1.5h107.5ZM87,87v64.5l1.5,1.5h63l1.5-1.5v-63l-1.5-1.5h-64.5Z"/>
  <rect x="523" y="523" width="22" height="22"/>
  <rect x="567" y="87" width="65" height="66"/>
  <rect x="87" y="567" width="66" height="65"/>
  <polygon points="87 87 151.5 87 153 88.5 153 151.5 151.5 153 88.5 153 87 151.5 87 87"/>
</svg>